<svg width="80px" height="80px" viewBox="0 -0.5 25 25" xmlns="http://www.w3.org/2000/svg">
  <path d="M10.0303 13.4697C9.73744 13.1768 9.26256 13.1768 8.96967 13.4697C8.67678 13.7626 8.67678 14.2374 8.96967 14.5303L10.0303 13.4697ZM11.5 16L10.9697 16.5303C11.2626 16.8232 11.7374 16.8232 12.0303 16.5303L11.5 16ZM16.0303 12.5303C16.3232 12.2374 16.3232 11.7626 16.0303 11.4697C15.7374 11.1768 15.2626 11.1768 14.9697 11.4697L16.0303 12.5303ZM4.76942 9.13841C4.67576 9.5419 4.92693 9.94492 5.33041 10.0386C5.7339 10.1322 6.13692 9.88107 6.23058 9.47759L4.76942 9.13841ZM6.5 5V4.25C6.15112 4.25 5.84831 4.49057 5.76942 4.83041L6.5 5ZM12.5 5.75C12.9142 5.75 13.25 5.41421 13.25 5C13.25 4.58579 12.9142 4.25 12.5 4.25V5.75ZM6.25 9.308C6.25 8.89379 5.91421 8.558 5.5 8.558C5.08579 8.558 4.75 8.89379 4.75 9.308H6.25ZM5.5 19H4.75C4.75 19.4142 5.08579 19.75 5.5 19.75V19ZM19.5 19V19.75C19.9142 19.75 20.25 19.4142 20.25 19H19.5ZM20.25 9.308C20.25 8.89379 19.9142 8.558 19.5 8.558C19.0858 8.558 18.75 8.89379 18.75 9.308H20.25ZM5.5 8.558C5.08579 8.558 4.75 8.89379 4.75 9.308C4.75 9.72221 5.08579 10.058 5.5 10.058V8.558ZM12.5 10.058C12.9142 10.058 13.25 9.72221 13.25 9.308C13.25 8.89379 12.9142 8.558 12.5 8.558V10.058ZM11.75 9.308C11.75 9.72221 12.0858 10.058 12.5 10.058C12.9142 10.058 13.25 9.72221 13.25 9.308H11.75ZM13.25 5C13.25 4.58579 12.9142 4.25 12.5 4.25C12.0858 4.25 11.75 4.58579 11.75 5H13.25ZM12.5 8.558C12.0858 8.558 11.75 8.89379 11.75 9.308C11.75 9.72221 12.0858 10.058 12.5 10.058V8.558ZM19.5 10.058C19.9142 10.058 20.25 9.72221 20.25 9.308C20.25 8.89379 19.9142 8.558 19.5 8.558V10.058ZM13.25 9.308C13.25 8.89379 12.9142 8.558 12.5 8.558C12.0858 8.558 11.75 8.89379 11.75 9.308H13.25ZM11.75 11C11.75 11.4142 12.0858 11.75 12.5 11.75C12.9142 11.75 13.25 11.4142 13.25 11H11.75ZM12.5 4.25C12.0858 4.25 11.75 4.58579 11.75 5C11.75 5.41421 12.0858 5.75 12.5 5.75V4.25ZM18.5 5L19.2306 4.83041C19.1517 4.49057 18.8489 4.25 18.5 4.25V5ZM18.7694 9.47759C18.8631 9.88107 19.2661 10.1322 19.6696 10.0386C20.0731 9.94492 20.3242 9.5419 20.2306 9.13841L18.7694 9.47759ZM8.96967 14.5303L10.9697 16.5303L12.0303 15.4697L10.0303 13.4697L8.96967 14.5303ZM12.0303 16.5303L16.0303 12.5303L14.9697 11.4697L10.9697 15.4697L12.0303 16.5303ZM6.23058 9.47759L7.23058 5.16959L5.76942 4.83041L4.76942 9.13841L6.23058 9.47759ZM6.5 5.75H12.5V4.25H6.5V5.75ZM4.75 9.308V19H6.25V9.308H4.75ZM5.5 19.75H19.5V18.25H5.5V19.75ZM20.25 19V9.308H18.75V19H20.25ZM5.5 10.058H12.5V8.558H5.5V10.058ZM13.25 9.308V5H11.75V9.308H13.25ZM12.5 10.058H19.5V8.558H12.5V10.058ZM11.75 9.308V11H13.25V9.308H11.75ZM12.5 5.75H18.5V4.25H12.5V5.75ZM17.7694 5.16959L18.7694 9.47759L20.2306 9.13841L19.2306 4.83041L17.7694 5.16959Z" />
</svg>
